<svg width="24" height="24" viewBox="96 30.5 23 23" fill="none" xmlns="http://www.w3.org/2000/svg">
<path d="M116.513 31.0816C116.743 31.0015 116.988 30.9784 117.227 31.0142L117.332 31.0337L117.434 31.0601C117.638 31.1209 117.825 31.2247 117.986 31.3638L118.064 31.4361L118.136 31.5132C118.275 31.6735 118.378 31.8617 118.439 32.065L118.466 32.1685L118.486 32.273C118.521 32.5119 118.497 32.7559 118.417 32.9849L118.418 32.9859L111.918 51.9859V51.9868C111.819 52.2762 111.634 52.5285 111.387 52.7095C111.14 52.8905 110.844 52.9917 110.538 52.9995C110.232 53.0073 109.931 52.9215 109.675 52.7534C109.42 52.5852 109.221 52.3422 109.107 52.0581L105.927 44.1275L105.885 44.0357C105.838 43.9465 105.778 43.8649 105.707 43.7935C105.611 43.6981 105.497 43.623 105.372 43.5728V43.5718L97.4409 40.3921C97.157 40.2782 96.9148 40.0802 96.7466 39.8247C96.5784 39.569 96.4927 39.2674 96.5005 38.9614C96.5084 38.6556 96.6095 38.3595 96.7905 38.1128L96.8608 38.023C97.0344 37.8207 97.2598 37.6685 97.5132 37.5816V37.5806L116.513 31.0806V31.0816ZM107.706 43.2056C107.733 43.263 107.759 43.3212 107.783 43.3804L107.784 43.3823L110.461 50.063L115.459 35.4527L107.706 43.2056ZM99.4351 39.0366L106.114 41.7154H106.115C106.174 41.7392 106.233 41.766 106.291 41.7935L114.046 34.0376L99.4351 39.0366Z" fill="#FFFFFF"/>
</svg>
